<?xml version="1.0" encoding="iso-8859-1"?>
<!-- Generator: Adobe Illustrator 19.0.0, SVG Export Plug-In . SVG Version: 6.00 Build 0)  -->
<svg version="1.1" id="Capa_1" xmlns="http://www.w3.org/2000/svg" xmlns:xlink="http://www.w3.org/1999/xlink" x="0px" y="0px"
	 viewBox="0 0 464 464" style="enable-background:new 0 0 464 464;" xml:space="preserve">
<g>
	<path style="fill:#55D08F;" d="M356,204l-70.8,23.6L276,204l68-22.664L356,204z"/>
	<path style="fill:#55D08F;" d="M124,328l72-48l-15.696-24.208l-70.544,47.04L124,328z"/>
</g>
<circle style="fill:#83D8EF;" cx="232" cy="240" r="64"/>
<g>
	<path style="fill:#55D08F;" d="M112.664,95.336L211.8,195.8c5.524,5.523,5.524,14.479,0.001,20.003
		c-0.658,0.658-1.379,1.249-2.153,1.765c-5.609,3.743-13.082,3.003-17.848-1.768l-98.464-99.136L112.664,95.336z"/>
	<path style="fill:#55D08F;" d="M296,354l-48.472-69.952c-4.192-6.711-2.289-15.54,4.296-19.928
		c6.722-4.485,15.807-2.671,20.292,4.051c0.001,0.002,0.002,0.004,0.004,0.005L320,338.664L296,354z"/>
</g>
<circle style="fill:#FFBC44;" cx="64" cy="72" r="64"/>
<circle style="fill:#FBCC34;" cx="400" cy="176" r="64"/>
<circle style="fill:#FFBC44;" cx="72" cy="344" r="64"/>
<circle style="fill:#83D8EF;" cx="328" cy="392" r="64"/>
<g>
</g>
<g>
</g>
<g>
</g>
<g>
</g>
<g>
</g>
<g>
</g>
<g>
</g>
<g>
</g>
<g>
</g>
<g>
</g>
<g>
</g>
<g>
</g>
<g>
</g>
<g>
</g>
<g>
</g>
</svg>
